<svg width="74" height="74" viewBox="0 0 74 74" fill="none" xmlns="http://www.w3.org/2000/svg">
<path d="M74 -3.05176e-05H0V74H74V-3.05176e-05Z" fill="#1C1D1A"/>
<path d="M31.4227 8.71609L22.3407 29.0442L24.8706 34.5901H25.0564L36.8685 8.71609H31.4227ZM13.0985 8.71609L20.4882 24.9906L23.1554 19.299L18.47 8.72181L13.0985 8.71609Z" fill="white"/>
<path d="M50.7532 8.71609H55.8273V13.2557H50.7532V8.71609Z" fill="white"/>
<path d="M33.8583 40.0388H28.241L16.0973 65.2838H33.8583V60.2411H24.1388L33.8583 40.0388ZM23.9673 40.0388H16.0973V45.0643H21.5488L23.9673 40.0388Z" fill="white"/>
<path d="M50.7531 55.0269H55.7787V49.967H45.679V65.2838H60.89V60.2411H50.7417L50.7531 55.0269ZM45.679 40.0388V45.0329H60.89V40.0388H45.679Z" fill="white"/>
</svg>
