<svg width="17" height="17" viewBox="0 0 17 17" fill="none" xmlns="http://www.w3.org/2000/svg">
<path d="M8.49406 0.514786C8.39341 0.51636 8.29749 0.557803 8.22736 0.630019C8.15723 0.702236 8.11862 0.799326 8.12 0.899982V3.17998C8.11929 3.23034 8.12859 3.28033 8.14737 3.32706C8.16614 3.37379 8.19402 3.41632 8.22938 3.45218C8.26474 3.48804 8.30687 3.51651 8.35332 3.53595C8.39978 3.55538 8.44964 3.56539 8.5 3.56539C8.55036 3.56539 8.60022 3.55538 8.64667 3.53595C8.69313 3.51651 8.73526 3.48804 8.77062 3.45218C8.80598 3.41632 8.83385 3.37379 8.85263 3.32706C8.87141 3.28033 8.88071 3.23034 8.88 3.17998V0.899982C8.8807 0.849142 8.87118 0.798679 8.85203 0.751581C8.83287 0.704484 8.80445 0.66171 8.76847 0.625792C8.73248 0.589874 8.68965 0.561542 8.64252 0.542475C8.59538 0.523408 8.5449 0.513992 8.49406 0.514786ZM3.13769 2.75842C3.06216 2.75859 2.98839 2.78126 2.92581 2.82354C2.86322 2.86582 2.81464 2.92579 2.78629 2.99579C2.75794 3.0658 2.75109 3.14267 2.76662 3.21659C2.78215 3.29051 2.81935 3.35812 2.87348 3.4108L4.46918 5.00651C4.50419 5.04297 4.54613 5.07209 4.59254 5.09215C4.63895 5.1122 4.6889 5.1228 4.73945 5.12331C4.79 5.12383 4.84015 5.11425 4.88696 5.09514C4.93377 5.07603 4.97629 5.04777 5.01204 5.01202C5.04779 4.97627 5.07605 4.93375 5.09515 4.88694C5.11426 4.84014 5.12384 4.78999 5.12333 4.73943C5.12282 4.68888 5.11222 4.63893 5.09216 4.59253C5.07211 4.54612 5.04299 4.50418 5.00652 4.46916L3.41082 2.87346C3.37532 2.83697 3.33285 2.80798 3.28593 2.78822C3.23902 2.76846 3.1886 2.75832 3.13769 2.75842ZM13.8504 2.75842C13.7517 2.76136 13.658 2.80262 13.5892 2.87346L11.9935 4.46916C11.957 4.50418 11.9279 4.54612 11.9078 4.59253C11.8878 4.63893 11.8772 4.68888 11.8767 4.73943C11.8762 4.78999 11.8857 4.84014 11.9048 4.88694C11.924 4.93375 11.9522 4.97627 11.988 5.01202C12.0237 5.04777 12.0662 5.07603 12.113 5.09514C12.1598 5.11425 12.21 5.12383 12.2605 5.12331C12.3111 5.1228 12.361 5.1122 12.4075 5.09215C12.4539 5.07209 12.4958 5.04297 12.5308 5.00651L14.1265 3.4108C14.1814 3.35743 14.2189 3.28871 14.2341 3.21365C14.2493 3.13859 14.2415 3.0607 14.2116 2.99017C14.1818 2.91965 14.1313 2.85979 14.0669 2.81844C14.0024 2.77708 13.927 2.75616 13.8504 2.75842ZM8.5 4.69998C8.44668 4.69937 8.39383 4.71 8.34488 4.73115C6.31882 4.81686 4.7 6.45238 4.7 8.49998C4.7 10.6026 6.39733 12.3 8.5 12.3C10.6027 12.3 12.3 10.6026 12.3 8.49998C12.3 6.45263 10.6816 4.81724 8.65586 4.73115C8.60668 4.70989 8.55357 4.69927 8.5 4.69998ZM8.5 5.45998C10.1973 5.45998 11.54 6.80265 11.54 8.49998C11.54 10.1973 10.1973 11.54 8.5 11.54C6.80267 11.54 5.46 10.1973 5.46 8.49998C5.46 6.80265 6.80267 5.45998 8.5 5.45998ZM0.899999 8.11998C0.849645 8.11927 0.799651 8.12857 0.752923 8.14735C0.706195 8.16613 0.663665 8.194 0.627805 8.22936C0.591944 8.26472 0.563469 8.30685 0.544032 8.35331C0.524596 8.39976 0.514587 8.44962 0.514587 8.49998C0.514587 8.55034 0.524596 8.6002 0.544032 8.64666C0.563469 8.69311 0.591944 8.73525 0.627805 8.7706C0.663665 8.80596 0.706195 8.83384 0.752923 8.85261C0.799651 8.87139 0.849645 8.88069 0.899999 8.87998H3.18C3.23035 8.88069 3.28035 8.87139 3.32708 8.85261C3.3738 8.83384 3.41633 8.80596 3.45219 8.7706C3.48805 8.73525 3.51653 8.69311 3.53597 8.64666C3.5554 8.6002 3.56541 8.55034 3.56541 8.49998C3.56541 8.44962 3.5554 8.39976 3.53597 8.35331C3.51653 8.30685 3.48805 8.26472 3.45219 8.22936C3.41633 8.194 3.3738 8.16613 3.32708 8.14735C3.28035 8.12857 3.23035 8.11927 3.18 8.11998H0.899999ZM13.82 8.11998C13.7696 8.11927 13.7197 8.12857 13.6729 8.14735C13.6262 8.16613 13.5837 8.194 13.5478 8.22936C13.5119 8.26472 13.4835 8.30685 13.464 8.35331C13.4446 8.39976 13.4346 8.44962 13.4346 8.49998C13.4346 8.55034 13.4446 8.6002 13.464 8.64666C13.4835 8.69311 13.5119 8.73525 13.5478 8.7706C13.5837 8.80596 13.6262 8.83384 13.6729 8.85261C13.7197 8.87139 13.7696 8.88069 13.82 8.87998H16.1C16.1504 8.88069 16.2003 8.87139 16.2471 8.85261C16.2938 8.83384 16.3363 8.80596 16.3722 8.7706C16.4081 8.73525 16.4365 8.69311 16.456 8.64666C16.4754 8.6002 16.4854 8.55034 16.4854 8.49998C16.4854 8.44962 16.4754 8.39976 16.456 8.35331C16.4365 8.30685 16.4081 8.26472 16.3722 8.22936C16.3363 8.194 16.2938 8.16613 16.2471 8.14735C16.2003 8.12857 16.1504 8.11927 16.1 8.11998H13.82ZM4.73043 11.8784C4.63171 11.8814 4.53801 11.9226 4.46918 11.9935L2.87348 13.5892C2.83701 13.6242 2.80789 13.6661 2.78784 13.7125C2.76778 13.7589 2.75718 13.8089 2.75667 13.8594C2.75616 13.91 2.76573 13.9601 2.78484 14.0069C2.80395 14.0537 2.83221 14.0963 2.86796 14.132C2.90371 14.1678 2.94623 14.196 2.99304 14.2151C3.03985 14.2342 3.08999 14.2438 3.14055 14.2433C3.1911 14.2428 3.24105 14.2322 3.28746 14.2121C3.33386 14.1921 3.3758 14.163 3.41082 14.1265L5.00652 12.5308C5.06143 12.4774 5.09894 12.4087 5.11412 12.3336C5.12931 12.2586 5.12146 12.1807 5.09162 12.1102C5.06177 12.0397 5.01132 11.9798 4.94687 11.9384C4.88242 11.8971 4.80697 11.8762 4.73043 11.8784ZM12.2577 11.8784C12.1822 11.8786 12.1084 11.9013 12.0458 11.9435C11.9832 11.9858 11.9346 12.0458 11.9063 12.1158C11.8779 12.1858 11.8711 12.2627 11.8866 12.3366C11.9021 12.4105 11.9393 12.4781 11.9935 12.5308L13.5892 14.1265C13.6242 14.163 13.6661 14.1921 13.7125 14.2121C13.759 14.2322 13.8089 14.2428 13.8595 14.2433C13.91 14.2438 13.9602 14.2342 14.007 14.2151C14.0538 14.196 14.0963 14.1678 14.132 14.132C14.1678 14.0963 14.196 14.0537 14.2152 14.0069C14.2343 13.9601 14.2438 13.91 14.2433 13.8594C14.2428 13.8089 14.2322 13.7589 14.2122 13.7125C14.1921 13.6661 14.163 13.6242 14.1265 13.5892L12.5308 11.9935C12.4953 11.957 12.4529 11.928 12.4059 11.9082C12.359 11.8885 12.3086 11.8783 12.2577 11.8784ZM8.49406 13.4348C8.39341 13.4364 8.29749 13.4778 8.22736 13.55C8.15723 13.6222 8.11862 13.7193 8.12 13.82V16.1C8.11929 16.1503 8.12859 16.2003 8.14737 16.2471C8.16614 16.2938 8.19402 16.3363 8.22938 16.3722C8.26474 16.408 8.30687 16.4365 8.35332 16.4559C8.39978 16.4754 8.44964 16.4854 8.5 16.4854C8.55036 16.4854 8.60022 16.4754 8.64667 16.4559C8.69313 16.4365 8.73526 16.408 8.77062 16.3722C8.80598 16.3363 8.83385 16.2938 8.85263 16.2471C8.87141 16.2003 8.88071 16.1503 8.88 16.1V13.82C8.8807 13.7691 8.87118 13.7187 8.85203 13.6716C8.83287 13.6245 8.80445 13.5817 8.76847 13.5458C8.73248 13.5099 8.68965 13.4815 8.64252 13.4625C8.59538 13.4434 8.5449 13.434 8.49406 13.4348Z" fill="black"/>
</svg>
